<?xml version="1.0" standalone="no"?>
<!DOCTYPE svg PUBLIC "-//W3C//DTD SVG 20010904//EN"
 "http://www.w3.org/TR/2001/REC-SVG-20010904/DTD/svg10.dtd">
<svg version="1.0" xmlns="http://www.w3.org/2000/svg"
 width="444.000000pt" height="444.000000pt" viewBox="0 0 444.000000 444.000000"
 preserveAspectRatio="xMidYMid meet">
<metadata>
Created by potrace 1.11, written by Peter Selinger 2001-2013
</metadata>
<g transform="translate(0.000000,444.000000) scale(0.100000,-0.100000)"
fill="#000000" stroke="none">
<path d="M1267 4092 c-14 -15 -10 -32 36 -174 37 -115 55 -159 69 -164 27 -8
36 2 54 64 30 108 42 138 48 122 3 -8 16 -51 28 -94 25 -85 47 -112 72 -86 19
20 105 297 99 321 -6 23 -33 33 -49 17 -7 -7 -26 -56 -42 -108 -29 -90 -31
-94 -41 -67 -6 16 -11 31 -11 34 0 3 -9 36 -20 73 -34 113 -59 104 -99 -36
-32 -111 -30 -112 -70 24 -24 79 -48 103 -74 74z"/>
<path d="M2643 4090 c-69 -32 -105 -89 -104 -167 2 -152 178 -229 291 -126 64
57 78 146 35 219 -46 78 -142 110 -222 74z m121 -61 c37 -17 60 -68 53 -118
-7 -52 -28 -78 -77 -92 -72 -22 -132 30 -132 114 0 82 80 130 156 96z"/>
<path d="M1742 4088 c-18 -18 -17 -302 2 -321 11 -10 41 -13 123 -11 133 2
123 0 123 24 0 28 -28 36 -116 35 l-74 -2 0 39 c0 29 4 38 18 39 9 0 32 1 51
2 39 2 63 29 44 48 -12 12 -33 17 -86 18 -26 1 -28 4 -25 38 l3 37 83 -1 c72
0 84 2 93 19 21 38 -4 48 -120 48 -70 0 -111 -4 -119 -12z"/>
<path d="M2062 4078 c-14 -36 -9 -292 5 -309 9 -11 34 -15 96 -14 92 1 138 15
160 49 21 31 12 87 -18 113 l-26 23 21 22 c27 29 24 81 -8 111 -20 19 -37 22
-123 25 -96 4 -99 3 -107 -20z m179 -55 c23 -23 5 -48 -36 -53 -65 -9 -84 -2
-82 29 1 14 6 29 12 33 14 10 94 3 106 -9z m1 -122 c22 -1 32 -35 18 -61 -10
-18 -19 -21 -73 -18 l-62 3 -1 35 c0 19 3 37 7 40 6 4 64 5 111 1z"/>
<path d="M2962 4083 c-5 -10 -8 -85 -8 -167 1 -130 3 -150 19 -160 12 -8 22
-8 35 0 13 9 17 25 17 73 0 35 4 61 10 62 107 6 128 15 109 47 -8 12 -27 18
-63 20 -28 2 -52 7 -52 13 -1 5 -1 16 -1 24 0 42 0 42 84 41 90 -2 116 10 98
45 -10 17 -22 19 -125 19 -99 0 -115 -2 -123 -17z"/>
<path d="M994 3496 c-17 -8 -41 -28 -54 -46 -22 -31 -23 -40 -23 -234 0 -225
4 -244 62 -283 32 -22 43 -23 226 -23 l191 0 40 -36 c40 -37 253 -236 357
-335 l59 -55 -30 -55 c-17 -30 -35 -72 -41 -95 l-11 -40 -150 0 c-82 0 -150 2
-150 6 0 3 20 40 45 83 57 97 65 145 33 207 -13 26 -37 53 -58 65 -34 19 -52
20 -445 20 -388 0 -412 -1 -442 -19 -55 -34 -78 -74 -77 -136 1 -53 8 -68 183
-370 223 -384 223 -383 271 -405 48 -22 120 -16 159 12 22 16 124 169 149 223
17 37 74 130 80 131 47 7 388 2 397 -6 6 -5 17 -28 23 -50 6 -22 27 -67 47
-99 l36 -59 -38 -40 c-21 -22 -45 -47 -53 -56 -8 -10 -70 -75 -137 -146 -66
-72 -138 -149 -158 -172 -21 -24 -42 -43 -47 -43 -5 0 -19 9 -30 20 -74 68
-213 88 -309 44 -67 -31 -113 -74 -147 -139 -22 -42 -27 -63 -27 -130 0 -96
22 -152 85 -215 57 -57 118 -82 205 -83 120 -2 222 62 272 170 25 54 34 142
20 198 -7 27 -2 36 50 91 32 33 112 119 178 189 66 71 143 154 171 184 l51 54
29 -19 c39 -27 100 -52 149 -62 l40 -8 3 -102 3 -102 -71 0 c-81 0 -118 -15
-151 -62 -22 -30 -23 -39 -23 -239 1 -229 3 -240 67 -280 30 -18 47 -19 244
-17 210 3 212 3 239 28 46 43 51 69 50 280 -2 196 -6 221 -42 257 -22 23 -64
33 -133 33 l-68 0 0 100 c0 100 0 100 26 106 82 18 161 52 198 86 l22 21 68
-65 c37 -36 97 -92 132 -124 167 -155 193 -183 188 -199 -4 -8 -2 -27 4 -43
17 -45 248 -438 268 -456 23 -21 68 -27 99 -13 30 14 281 440 287 487 3 31
-19 76 -44 90 -12 6 -115 10 -261 10 l-242 0 -62 59 c-33 32 -77 73 -96 91
-19 18 -85 80 -147 137 l-112 105 25 39 c13 21 32 64 41 94 13 42 22 55 38 56
66 4 222 4 233 1 8 -3 12 -32 12 -99 0 -53 5 -113 11 -134 16 -51 60 -102 110
-127 39 -20 60 -21 346 -22 277 0 308 1 347 18 49 22 88 59 113 105 15 28 17
68 18 327 1 162 -2 314 -7 337 -6 25 -24 58 -49 87 -63 71 -84 75 -436 73
-292 -2 -299 -2 -339 -25 -47 -27 -86 -73 -102 -121 -7 -19 -12 -80 -12 -136
l0 -102 -131 1 -131 1 -24 64 c-12 36 -36 84 -53 107 l-30 43 72 77 c40 43 83
90 97 104 49 52 268 286 307 328 l40 43 34 -57 c19 -32 46 -67 62 -78 26 -19
30 -19 69 -6 37 14 47 25 114 140 40 69 77 132 81 140 5 9 32 56 60 106 29 50
53 99 53 108 0 30 -30 77 -56 86 -36 14 -527 13 -557 -1 -29 -13 -50 -47 -49
-82 0 -28 8 -46 79 -169 l51 -86 -40 -44 c-22 -23 -98 -104 -168 -178 -70 -74
-158 -168 -196 -209 -139 -148 -146 -155 -156 -133 -5 13 -94 51 -151 66 l-52
13 -2 116 -2 116 62 30 c77 37 97 55 135 117 52 86 59 186 18 277 -31 68 -77
113 -150 148 -190 90 -420 -59 -417 -269 1 -63 6 -85 33 -139 29 -58 97 -118
160 -140 l48 -18 0 -121 0 -121 -39 -7 c-49 -8 -125 -39 -173 -73 l-38 -26
-57 55 c-32 31 -91 86 -132 124 -223 207 -244 229 -234 250 6 11 10 104 9 227
l-2 207 -37 38 -37 37 -208 2 c-159 2 -214 0 -238 -11z"/>
<path d="M1258 673 c-22 -27 3 -48 66 -51 l56 -3 0 -127 c0 -70 4 -133 9 -140
4 -8 19 -12 32 -10 24 3 24 4 27 141 l3 137 52 0 c57 0 79 13 69 39 -10 29
-25 31 -164 30 -108 -1 -140 -4 -150 -16z"/>
<path d="M1632 673 c-5 -10 -9 -87 -9 -171 0 -150 0 -152 23 -158 37 -9 44 3
44 75 l0 67 80 0 79 1 3 -71 c3 -66 5 -71 27 -74 13 -2 28 2 32 10 5 7 9 81 9
164 0 160 -6 180 -47 172 -14 -3 -19 -16 -23 -69 l-5 -65 -75 0 -75 0 -5 65
c-4 58 -8 66 -27 69 -13 2 -25 -4 -31 -15z"/>
<path d="M2015 668 c-3 -13 -4 -90 -3 -173 3 -150 3 -150 27 -153 13 -2 27 2
31 8 12 20 11 312 -2 327 -17 21 -47 15 -53 -9z"/>
<path d="M2182 678 c-8 -8 -12 -62 -12 -175 l0 -163 29 0 c16 0 31 6 33 13 2
6 4 56 3 110 0 53 2 97 5 97 3 -1 41 -49 86 -108 62 -83 87 -108 107 -110 20
-3 27 1 28 15 5 91 3 298 -3 314 -9 24 -45 25 -55 2 -5 -10 -8 -62 -8 -116 1
-54 -2 -94 -5 -90 -4 5 -44 56 -89 116 -46 59 -88 107 -95 107 -6 0 -17 -5
-24 -12z"/>
<path d="M2644 682 c-33 -10 -79 -53 -98 -89 -22 -43 -21 -120 3 -163 52 -99
200 -126 281 -50 25 23 29 34 28 79 0 68 -14 81 -88 80 -66 -1 -88 -16 -72
-46 7 -12 23 -18 49 -18 31 -1 39 -5 41 -21 4 -28 -17 -43 -70 -50 -40 -6 -49
-3 -78 23 -27 24 -33 38 -38 81 -4 49 -2 54 31 87 40 40 75 45 131 19 40 -20
66 -13 66 16 0 43 -114 74 -186 52z"/>
<path d="M2970 671 c-64 -34 -64 -117 0 -154 16 -10 55 -26 86 -36 100 -31 90
-86 -14 -80 -26 2 -60 10 -76 18 -32 15 -59 6 -64 -23 -3 -11 10 -22 40 -35
128 -56 248 -20 248 74 0 54 -26 79 -115 108 -77 25 -101 50 -71 72 12 9 34
12 70 9 106 -11 111 -11 114 14 3 18 -4 26 -32 37 -50 21 -143 19 -186 -4z"/>
</g>
</svg>
